<?xml version="1.0" encoding="utf-8"?>
<!-- Generator: Adobe Illustrator 23.1.0, SVG Export Plug-In . SVG Version: 6.00 Build 0)  -->
<svg version="1.1" id="레이어_1" xmlns="http://www.w3.org/2000/svg" xmlns:xlink="http://www.w3.org/1999/xlink" x="0px"
	 y="0px" viewBox="0 0 147 45" style="enable-background:new 0 0 147 45;" xml:space="preserve">
<style type="text/css">
	.st0{fill:#333333;}
</style>
<g>
	<path class="st0" d="M55.23,13.9v8.49v10.88c0,0.86,0.15,1.52,0.45,1.97c0.3,0.45,0.71,0.78,1.25,0.98
		c0.53,0.21,1.15,0.33,1.84,0.36s1.43,0.05,2.23,0.05h0.95h1.42c0.71,0,1.37-0.02,1.99-0.07c0.61-0.05,1.16-0.18,1.63-0.41
		s0.85-0.56,1.13-1.01c0.28-0.45,0.41-1.07,0.41-1.87V13.9h1.25h4.99v19.22c0,1.76-0.24,3.15-0.71,4.17
		c-0.47,1.02-1.15,1.79-2.02,2.3c-0.87,0.51-1.94,0.83-3.2,0.96c-1.27,0.13-2.67,0.19-4.21,0.19h-2.97h-2.26
		c-1.62,0-3.08-0.06-4.36-0.19c-1.29-0.13-2.37-0.44-3.26-0.93c-0.89-0.5-1.57-1.25-2.05-2.28C49.24,36.32,49,34.91,49,33.12V13.9
		H55.23z"/>
	<path class="st0" d="M78.27,35.76v-5.9c0-1.15,0.21-2.08,0.62-2.78s0.94-1.24,1.58-1.61c0.64-0.37,1.34-0.61,2.08-0.72
		s1.44-0.17,2.1-0.17h9.84v-2.4c0-1.44-0.36-2.4-1.06-2.88s-1.76-0.72-3.14-0.72l-9.89-0.05v-4.6h8.01c2.84,0,5.01,0.24,6.53,0.72
		c1.52,0.48,2.63,1.17,3.34,2.09c0.71,0.91,1.12,2.01,1.24,3.31c0.12,1.29,0.17,2.76,0.17,4.39v16.3H84.5
		c-0.56,0-1.2-0.04-1.93-0.12s-1.41-0.29-2.05-0.62c-0.64-0.34-1.18-0.83-1.61-1.49C78.48,37.86,78.27,36.94,78.27,35.76z
		 M83.46,31.11v3.07c0,0.45,0.13,0.8,0.4,1.05c0.26,0.26,0.58,0.46,0.96,0.6c0.38,0.14,0.78,0.23,1.21,0.26
		c0.43,0.03,0.81,0.05,1.14,0.05h7.32v-6.95h-7.32c-0.36,0-0.76,0.02-1.19,0.05c-0.43,0.03-0.83,0.1-1.21,0.22s-0.69,0.29-0.94,0.55
		S83.46,30.63,83.46,31.11z"/>
	<path class="st0" d="M129.17,13.94c2.84,0,5.01,0.24,6.53,0.72c1.52,0.48,2.63,1.17,3.34,2.09c0.71,0.91,1.12,2.01,1.24,3.31
		c0.12,1.29,0.17,2.76,0.17,4.39v16.3h-5.19V22.19c0-1.44-0.35-2.4-1.06-2.88s-1.76-0.72-3.14-0.72h-6.58l0.05,22.15h-5.19
		l-0.05-22.2h-10.83v22.2h-5.19v-26.8H129.17z"/>
</g>
<polygon points="-16.34,-71 -14.18,-71 -10.46,-86 -12.62,-86 "/>
<polygon points="-6.46,-71 -8.62,-71 -12.34,-86 -10.18,-86 "/>
<polygon points="-12.34,-71 -10.18,-71 -6.46,-86 -8.62,-86 "/>
<polygon points="-2.46,-71 -4.62,-71 -8.34,-86 -6.18,-86 "/>
<g>
	<path class="st0" d="M55.23-43.1v8.49v10.88c0,0.86,0.15,1.52,0.45,1.97c0.3,0.45,0.71,0.78,1.25,0.98
		c0.53,0.21,1.15,0.33,1.84,0.36s1.43,0.05,2.23,0.05h0.95h1.42c0.71,0,1.37-0.02,1.99-0.07c0.61-0.05,1.16-0.18,1.63-0.41
		s0.85-0.56,1.13-1.01c0.28-0.45,0.41-1.07,0.41-1.87V-43.1h1.25h4.99v19.22c0,1.76-0.24,3.15-0.71,4.17
		c-0.47,1.02-1.15,1.79-2.02,2.3c-0.87,0.51-1.94,0.83-3.2,0.96c-1.27,0.13-2.67,0.19-4.21,0.19h-2.97h-2.26
		c-1.62,0-3.08-0.06-4.36-0.19c-1.29-0.13-2.37-0.44-3.26-0.93c-0.89-0.5-1.57-1.25-2.05-2.28C49.24-20.68,49-22.09,49-23.88V-43.1
		H55.23z"/>
	<path class="st0" d="M78.27-21.24v-5.9c0-1.15,0.21-2.08,0.62-2.78s0.94-1.24,1.58-1.61c0.64-0.37,1.34-0.61,2.08-0.72
		s1.44-0.17,2.1-0.17h9.84v-2.4c0-1.44-0.36-2.4-1.06-2.88s-1.76-0.72-3.14-0.72l-9.89-0.05v-4.6h8.01c2.84,0,5.01,0.24,6.53,0.72
		c1.52,0.48,2.63,1.17,3.34,2.09c0.71,0.91,1.12,2.01,1.24,3.31c0.12,1.29,0.17,2.76,0.17,4.39v16.3H84.5
		c-0.56,0-1.2-0.04-1.93-0.12s-1.41-0.29-2.05-0.62c-0.64-0.34-1.18-0.83-1.61-1.49C78.48-19.14,78.27-20.06,78.27-21.24z
		 M83.46-25.89v3.07c0,0.45,0.13,0.8,0.4,1.05c0.26,0.26,0.58,0.46,0.96,0.6c0.38,0.14,0.78,0.23,1.21,0.26
		c0.43,0.03,0.81,0.05,1.14,0.05h7.32v-6.95h-7.32c-0.36,0-0.76,0.02-1.19,0.05c-0.43,0.03-0.83,0.1-1.21,0.22s-0.69,0.29-0.94,0.55
		S83.46-26.37,83.46-25.89z"/>
	<path class="st0" d="M129.17-43.06c2.84,0,5.01,0.24,6.53,0.72c1.52,0.48,2.63,1.17,3.34,2.09c0.71,0.91,1.12,2.01,1.24,3.31
		c0.12,1.29,0.17,2.76,0.17,4.39v16.3h-5.19v-18.55c0-1.44-0.35-2.4-1.06-2.88s-1.76-0.72-3.14-0.72h-6.58l0.05,22.15h-5.19
		l-0.05-22.2h-10.83v22.2h-5.19v-26.8H129.17z"/>
</g>
<path class="st0" d="M41.85-16h2.79c0.68,0,1.16-0.66,0.95-1.3L34.83-51.28c-0.13-0.42-0.52-0.7-0.95-0.7h-3.42
	c-0.44,0-0.82,0.28-0.95,0.7l-4.12,13.01l-4.12-13.01c-0.13-0.42-0.52-0.7-0.95-0.7h-3.42c-0.44,0-0.82,0.28-0.95,0.7L5.17-17.3
	C4.97-16.66,5.45-16,6.13-16h2.79c0.44,0,0.82-0.28,0.95-0.7l8.73-26.57l4.34,12.71l-4.2,13.26c-0.2,0.64,0.28,1.3,0.95,1.3h2.79
	c0.44,0,0.82-0.28,0.95-0.7l1.95-6.15l1.95,6.15c0.13,0.42,0.52,0.7,0.95,0.7h2.79c0.68,0,1.16-0.66,0.95-1.3l-4.2-13.26l4.34-12.71
	L40.9-16.7C41.03-16.28,41.41-16,41.85-16z"/>
<g>
	<path class="st0" d="M7.92,4c0.73,0,1.32,0.06,1.76,0.17c0.44,0.11,0.82,0.32,1.14,0.61c0.32,0.29,0.63,0.68,0.94,1.17
		c0.3,0.49,0.67,1.09,1.09,1.81l11.73,19.18L36.02,8.2c0.43-0.72,0.81-1.33,1.14-1.86c0.33-0.52,0.66-0.95,0.98-1.29
		c0.32-0.34,0.67-0.6,1.05-0.78C39.57,4.09,40.04,4,40.58,4h0C41.92,4,43,5.08,43,6.42v34.19h-5.02V13.86L27.26,31.43
		c-1,1.56-2.01,2.34-3.01,2.34c-1.03,0-2.04-0.78-3.01-2.34L10.52,13.86v26.75H5.5V6.42C5.5,5.08,6.58,4,7.92,4L7.92,4z"/>
</g>
</svg>
